<svg xmlns="http://www.w3.org/2000/svg" viewBox="0 0 24 24">
	<defs>
		<style>.a{fill:#e74b25;}.b{fill:#ea6442;}.c{fill:#ae3415;}.d{fill:#26a9e0;}</style>
	</defs>
	<rect class="a" x="1" y="1" width="22" height="22" rx="7.656"/>
		<path class="b" d="M23,13.938a14.69,14.69,0,0,1-12.406,6.531c-5.542,0-6.563-1-9.142-2.529A7.66,7.66,0,0,0,8.656,23h6.688A7.656,7.656,0,0,0,23,15.344Z"/>
		<path class="c" d="M9.565,8.513A16.121,16.121,0,0,1,5.63,6.328a.52.52,0,0,0-.832.4c-.048,1.583.151,4.483,2.258,4.483A2.6,2.6,0,0,0,9.9,9.1.517.517,0,0,0,9.565,8.513Z"/>
		<path class="c" d="M14.512,13.366a5.943,5.943,0,0,0-5.024,0c-.592.369-.557-.694.753-.974A7.35,7.35,0,0,1,12,12.078a7.35,7.35,0,0,1,1.759.314C15.069,12.672,15.1,13.735,14.512,13.366Z"/>
		<path class="c" d="M19.2,6.731a.521.521,0,0,0-.832-.4,16.121,16.121,0,0,1-3.935,2.185A.517.517,0,0,0,14.1,9.1a2.6,2.6,0,0,0,2.84,2.11C19.051,11.214,19.25,8.314,19.2,6.731Z"/>
		<path class="b" d="M13.074,14.269a2.542,2.542,0,0,0-2.148,0c-.253.158-.238-.3.322-.416A3.144,3.144,0,0,1,12,13.719a3.144,3.144,0,0,1,.752.134C13.312,13.973,13.327,14.427,13.074,14.269Z"/>
</svg>
